<svg width="143" height="50" viewBox="0 0 143 50" fill="none" xmlns="http://www.w3.org/2000/svg">
<path d="M13.6999 47.2156L16.2077 45.7172L18.344 44.3951L21.1305 42.8085L24.9386 40.7813L28.1895 39.1947L31.6261 37.7845L35.713 36.3742L37.5706 35.7572L38.4994 35.4928H38.871L39.0567 35.7572L38.871 36.1979L38.2208 38.137L36.8275 40.7813L34.3197 43.6899L31.3475 46.246L28.0037 48.097L24.9386 49.1547L21.9664 49.4191H19.3657L17.5081 49.1547L15.5575 48.714L13.6999 48.097L13.2355 47.8326V47.5682L13.6999 47.2156Z" fill="#136E43" stroke="#136E43" stroke-width="0.960294"/>
<path d="M21.4656 10.4229L21.1876 12.2796L21.0023 12.5449L20.9097 11.7491L20.7243 10.7765L20.539 10.0692L20.261 9.18505L19.8904 8.03564L19.3344 7.06306L18.8711 6.35573L18.1299 5.6484L17.2033 5.1179L17.6666 5.6484L18.1299 6.26732L18.5005 7.06306L18.9638 8.21247L19.3344 9.18505L19.7051 10.6881L19.8904 11.3955L19.9831 11.926V12.1912V12.5449L19.8904 13.2522L19.3344 13.0754L18.5005 12.7217L17.1106 11.7491L15.906 10.4229L15.2574 9.18505L14.6088 6.79781L14.5161 4.85265L14.6088 3.34958L14.8868 1.40442L15.2574 1.49284L15.906 1.75808L17.1106 2.46541L18.3152 3.34958L19.3344 4.14532L20.261 5.02949L20.9097 6.09048L21.4656 7.85881L21.5583 9.18505L21.4656 10.4229Z" fill="#459443" stroke="#459443" stroke-width="0.960294"/>
<path d="M4.48633 40.4489L4.85893 40.1841L9.42329 37.977L18.4589 34.534L25.4451 32.5917L32.2451 31.2675L36.9026 30.473L38.6725 30.2964L39.5108 30.473L39.6971 30.9144V32.7683L39.5108 33.2097L39.1382 33.3863L29.9163 36.2996L25.6314 38.2418L21.5328 40.4489L16.5027 43.1857L13.0561 45.3928L11.4726 46.5404L11.0068 46.717L10.5411 46.5404L9.79589 46.0107L7.74659 44.5099L6.34933 43.1857L5.13838 41.7732L4.67263 40.9786L4.48633 40.7138V40.4489Z" fill="#459443" stroke="#459443" stroke-width="0.960294"/>
<path d="M1.37897 32.4598L1.28528 29.648L1.37897 29.3844L1.8474 29.2087L3.25271 28.8572L7.37495 27.627L12.5277 26.7483L16.65 26.2211L18.3364 26.0454L18.7111 25.8696L18.8048 25.3424L18.8985 24.0244L19.0859 20.7732L19.4606 18.3129L21.0533 14.886L23.3018 12.2499L25.644 10.5804L27.8925 9.61386L31.6399 8.6473L34.7316 8.47156L34.2632 11.7227L33.42 14.2709L31.6399 16.9949L28.923 19.3673L27.7051 20.1581L24.426 21.2126L21.8965 21.4762V21.2126L22.0838 19.6309L22.8333 17.8736L23.8639 15.9404L25.2692 14.183L26.9556 12.6014L28.642 11.3712L27.6114 11.7227L25.4566 12.865L23.7702 14.2709L22.4586 15.7647L20.8659 18.8401L20.3975 20.5975V22.5306V25.1667L20.4912 25.7818L20.7722 25.8696H32.2958L36.6054 26.0454L39.2286 26.2211L39.6034 26.309L39.697 26.5726V28.33L39.6034 28.5057L39.3223 28.5936L37.5422 28.6814L33.2326 29.2965L29.2978 29.9116L26.9556 30.4388L23.3018 31.3175L19.5543 32.2841L17.2121 32.987L15.2447 33.6021L12.8088 34.4808L9.34238 35.7988L5.78227 37.5562L3.90852 38.5228L3.25271 38.6107L2.87796 38.347L2.12846 36.7654L1.66003 35.3595L1.37897 32.4598Z" fill="#7FBD42" stroke="#7FBD42" stroke-width="0.960294"/>
<path d="M16.8038 20.187L17.1794 20.9755V21.1507H16.8977L15.4893 20.9755L14.3625 20.8003L13.1419 20.4498L11.8273 19.8366L11.1701 19.4861L10.325 18.7853L9.85553 18.3472L8.54099 16.7703L7.50814 15.0181L6.75698 13.1783L6.1936 10.55L8.82268 10.7253L10.6067 10.9005L12.4846 11.3385L13.9869 11.8642L15.0198 12.6527L16.2404 13.8792L17.1794 15.3685L17.7427 16.7703L17.9305 18.172V18.8729L17.7427 19.8366L17.3672 19.1357L16.8977 18.3472L16.0526 17.1207L15.2076 15.8942L14.3625 15.0181L13.3297 14.142L12.109 13.3535L10.4189 12.8279L10.8884 13.1783L11.5456 13.8792L12.2968 14.58L12.9541 15.3685L13.7991 16.2446L14.5503 17.1207L15.2076 17.9968L16.0526 19.1357L16.8038 20.187Z" fill="#136E43" stroke="#136E43" stroke-width="0.960294"/>
<path d="M41.3487 10.8963H43.2117V24.2059H41.3487V10.8963ZM55.6294 24.2059C55.3477 23.7322 55.0212 23.2008 54.6499 22.6118C54.2913 22.0229 53.9008 21.4147 53.4783 20.7873C53.0558 20.1471 52.614 19.5005 52.1531 18.8475C51.705 18.1945 51.2568 17.5671 50.8087 16.9653C50.3605 16.3507 49.9252 15.7745 49.5027 15.2368C49.0801 14.699 48.6896 14.2253 48.3311 13.8155V24.2059H46.5066V10.8963H47.9854C48.5872 11.5365 49.2274 12.2855 49.906 13.1433C50.5974 13.9884 51.276 14.8655 51.9418 15.7745C52.6204 16.6708 53.2542 17.5543 53.8432 18.425C54.445 19.2956 54.9507 20.0703 55.3605 20.7489V10.8963H57.185V24.2059H55.6294ZM69.6024 24.2059C69.3207 23.7322 68.9942 23.2008 68.6229 22.6118C68.2644 22.0229 67.8739 21.4147 67.4513 20.7873C67.0288 20.1471 66.5871 19.5005 66.1261 18.8475C65.678 18.1945 65.2298 17.5671 64.7817 16.9653C64.3336 16.3507 63.8982 15.7745 63.4757 15.2368C63.0532 14.699 62.6627 14.2253 62.3041 13.8155V24.2059H60.4796V10.8963H61.9584C62.5602 11.5365 63.2004 12.2855 63.879 13.1433C64.5704 13.9884 65.249 14.8655 65.9149 15.7745C66.5935 16.6708 67.2273 17.5543 67.8162 18.425C68.418 19.2956 68.9238 20.0703 69.3335 20.7489V10.8963H71.1581V24.2059H69.6024ZM73.9149 17.5415C73.9149 16.4019 74.0813 15.3968 74.4142 14.5262C74.7599 13.6555 75.2209 12.9321 75.797 12.3559C76.386 11.7669 77.0646 11.3252 77.8329 11.0307C78.6139 10.7362 79.4397 10.589 80.3104 10.589C81.1683 10.589 81.9749 10.7362 82.7304 11.0307C83.4986 11.3252 84.1708 11.7669 84.747 12.3559C85.3231 12.9321 85.7777 13.6555 86.1106 14.5262C86.4563 15.3968 86.6291 16.4019 86.6291 17.5415C86.6291 18.681 86.4563 19.6861 86.1106 20.5568C85.7777 21.4275 85.3231 22.1573 84.747 22.7463C84.1708 23.3225 83.4986 23.7578 82.7304 24.0523C81.9749 24.3468 81.1683 24.494 80.3104 24.494C79.4397 24.494 78.6139 24.3468 77.8329 24.0523C77.0646 23.7578 76.386 23.3225 75.797 22.7463C75.2209 22.1573 74.7599 21.4275 74.4142 20.5568C74.0813 19.6861 73.9149 18.681 73.9149 17.5415ZM75.8739 17.5415C75.8739 18.3481 75.9763 19.0844 76.1811 19.7502C76.386 20.4032 76.6741 20.9601 77.0454 21.4211C77.4295 21.882 77.8905 22.2405 78.4282 22.4966C78.9788 22.7399 79.5934 22.8615 80.272 22.8615C80.9506 22.8615 81.5588 22.7399 82.0966 22.4966C82.6343 22.2405 83.0889 21.882 83.4602 21.4211C83.8443 20.9601 84.1388 20.4032 84.3436 19.7502C84.5485 19.0844 84.6509 18.3481 84.6509 17.5415C84.6509 16.7348 84.5485 16.005 84.3436 15.352C84.1388 14.6862 83.8443 14.1228 83.4602 13.6619C83.0889 13.201 82.6343 12.8489 82.0966 12.6056C81.5588 12.3495 80.9506 12.2215 80.272 12.2215C79.5934 12.2215 78.9788 12.3495 78.4282 12.6056C77.8905 12.8489 77.4295 13.201 77.0454 13.6619C76.6741 14.1228 76.386 14.6862 76.1811 15.352C75.9763 16.005 75.8739 16.7348 75.8739 17.5415ZM99.8374 10.8963C99.3508 12.3047 98.8835 13.6107 98.4354 14.8143C98 16.005 97.5711 17.1382 97.1486 18.2137C96.726 19.2892 96.3035 20.3199 95.881 21.3058C95.4713 22.2789 95.0487 23.2456 94.6134 24.2059H92.8657C92.4303 23.2456 92.0014 22.2789 91.5789 21.3058C91.1691 20.3199 90.7466 19.2892 90.3113 18.2137C89.8887 17.1382 89.4534 16.005 89.0053 14.8143C88.5571 13.6107 88.0962 12.3047 87.6225 10.8963H89.6775C90.3689 12.9193 91.0475 14.8655 91.7133 16.7348C92.3791 18.6042 93.0641 20.3584 93.7683 21.9973C94.4726 20.3712 95.1576 18.6234 95.8234 16.754C96.4892 14.8719 97.1614 12.9193 97.84 10.8963H99.8374ZM109.397 24.2059C109.179 23.6298 108.974 23.0664 108.782 22.5158C108.59 21.9524 108.392 21.3827 108.187 20.8065H102.156L100.946 24.2059H99.0063C99.5184 22.7975 99.9986 21.4979 100.447 20.3071C100.895 19.1036 101.33 17.964 101.753 16.8885C102.188 15.813 102.617 14.7886 103.04 13.8155C103.462 12.8296 103.904 11.8565 104.365 10.8963H106.074C106.535 11.8565 106.977 12.8296 107.399 13.8155C107.822 14.7886 108.244 15.813 108.667 16.8885C109.102 17.964 109.544 19.1036 109.992 20.3071C110.44 21.4979 110.92 22.7975 111.432 24.2059H109.397ZM107.649 19.27C107.239 18.1561 106.829 17.0805 106.42 16.0434C106.023 14.9935 105.607 13.9884 105.171 13.0281C104.723 13.9884 104.294 14.9935 103.885 16.0434C103.488 17.0805 103.091 18.1561 102.694 19.27H107.649ZM50.2411 46.2059C50.0234 45.6298 49.8185 45.0664 49.6265 44.5158C49.4344 43.9524 49.2359 43.3827 49.0311 42.8065H43.0004L41.7905 46.2059H39.8507C40.3628 44.7975 40.843 43.4979 41.2911 42.3071C41.7392 41.1036 42.1746 39.964 42.5971 38.8885C43.0324 37.813 43.4614 36.7886 43.8839 35.8155C44.3064 34.8296 44.7482 33.8565 45.2091 32.8963H46.9184C47.3794 33.8565 47.8211 34.8296 48.2436 35.8155C48.6662 36.7886 49.0887 37.813 49.5112 38.8885C49.9466 39.964 50.3883 41.1036 50.8364 42.3071C51.2846 43.4979 51.7647 44.7975 52.2769 46.2059H50.2411ZM48.4933 41.27C48.0836 40.1561 47.6739 39.0805 47.2641 38.0434C46.8672 36.9935 46.4511 35.9884 46.0158 35.0281C45.5676 35.9884 45.1387 36.9935 44.729 38.0434C44.332 39.0805 43.9351 40.1561 43.5382 41.27H48.4933ZM61.8516 39.6567H63.7146V45.8794C63.5609 45.9306 63.3369 45.9883 63.0424 46.0523C62.7607 46.1163 62.4278 46.1803 62.0437 46.2443C61.6724 46.3084 61.2626 46.3596 60.8145 46.398C60.3664 46.4492 59.9118 46.4748 59.4509 46.4748C58.5162 46.4748 57.6647 46.3212 56.8965 46.0139C56.1283 45.7066 55.4689 45.2584 54.9183 44.6695C54.3677 44.0805 53.9388 43.3571 53.6315 42.4992C53.337 41.6413 53.1898 40.6554 53.1898 39.5415C53.1898 38.4275 53.3562 37.4416 53.6891 36.5838C54.0348 35.7131 54.4958 34.9833 55.0719 34.3943C55.6481 33.8053 56.3203 33.3572 57.0885 33.0499C57.8696 32.7426 58.7018 32.589 59.5853 32.589C60.1871 32.589 60.7185 32.6274 61.1794 32.7042C61.6531 32.781 62.0565 32.8706 62.3894 32.9731C62.7223 33.0755 62.9912 33.1779 63.196 33.2804C63.4137 33.3828 63.5609 33.4596 63.6378 33.5108L63.0424 35.0665C62.6711 34.8232 62.1781 34.6248 61.5635 34.4711C60.9489 34.3047 60.3215 34.2215 59.6813 34.2215C59.0027 34.2215 58.3817 34.3431 57.8184 34.5864C57.2678 34.8296 56.7941 35.1818 56.3971 35.6427C56.013 36.1036 55.7121 36.667 55.4945 37.3328C55.2768 37.9858 55.168 38.722 55.168 39.5415C55.168 40.3353 55.2576 41.0588 55.4368 41.7118C55.6289 42.3648 55.9106 42.9281 56.2819 43.4019C56.666 43.8628 57.1334 44.2213 57.6839 44.4774C58.2473 44.7335 58.9067 44.8615 59.6621 44.8615C60.1999 44.8615 60.6544 44.8359 61.0258 44.7847C61.4099 44.7207 61.6852 44.6631 61.8516 44.6118V39.6567ZM73.1423 40.6362C73.3471 40.8923 73.6032 41.2316 73.9105 41.6541C74.2306 42.0639 74.5571 42.5248 74.89 43.037C75.2229 43.5363 75.5494 44.0613 75.8695 44.6118C76.2024 45.1624 76.4841 45.6938 76.7146 46.2059H74.6787C74.4227 45.7194 74.141 45.2264 73.8337 44.7271C73.5392 44.2277 73.2383 43.754 72.931 43.3058C72.6237 42.8449 72.3164 42.416 72.0091 42.019C71.7146 41.6221 71.4457 41.2764 71.2025 40.9819C71.036 40.9947 70.8632 41.0011 70.6839 41.0011C70.5175 41.0011 70.3446 41.0011 70.1654 41.0011H68.4944V46.2059H66.6315V33.0883C67.1564 32.9603 67.739 32.877 68.3792 32.8386C69.0322 32.7874 69.6276 32.7618 70.1654 32.7618C72.0347 32.7618 73.456 33.1139 74.4291 33.8181C75.415 34.5224 75.9079 35.5723 75.9079 36.9679C75.9079 37.8514 75.671 38.6068 75.1973 39.2342C74.7364 39.8616 74.0513 40.3289 73.1423 40.6362ZM70.319 34.3943C69.5252 34.3943 68.917 34.4135 68.4944 34.4519V39.4647H69.8196C70.4598 39.4647 71.036 39.4327 71.5482 39.3686C72.0603 39.3046 72.4893 39.183 72.835 39.0037C73.1935 38.8245 73.4688 38.5748 73.6608 38.2547C73.8529 37.9218 73.9489 37.4865 73.9489 36.9487C73.9489 36.4493 73.8529 36.0332 73.6608 35.7003C73.4688 35.3674 73.2063 35.1049 72.8734 34.9129C72.5533 34.7208 72.1692 34.5864 71.721 34.5095C71.2857 34.4327 70.8184 34.3943 70.319 34.3943ZM77.9661 39.5415C77.9661 38.4019 78.1325 37.3968 78.4654 36.5262C78.8112 35.6555 79.2721 34.9321 79.8483 34.3559C80.4373 33.7669 81.1159 33.3252 81.8841 33.0307C82.6651 32.7362 83.491 32.589 84.3617 32.589C85.2195 32.589 86.0262 32.7362 86.7816 33.0307C87.5498 33.3252 88.222 33.7669 88.7982 34.3559C89.3744 34.9321 89.8289 35.6555 90.1618 36.5262C90.5075 37.3968 90.6804 38.4019 90.6804 39.5415C90.6804 40.681 90.5075 41.6861 90.1618 42.5568C89.8289 43.4275 89.3744 44.1573 88.7982 44.7463C88.222 45.3225 87.5498 45.7578 86.7816 46.0523C86.0262 46.3468 85.2195 46.494 84.3617 46.494C83.491 46.494 82.6651 46.3468 81.8841 46.0523C81.1159 45.7578 80.4373 45.3225 79.8483 44.7463C79.2721 44.1573 78.8112 43.4275 78.4654 42.5568C78.1325 41.6861 77.9661 40.681 77.9661 39.5415ZM79.9251 39.5415C79.9251 40.3481 80.0275 41.0844 80.2324 41.7502C80.4373 42.4032 80.7253 42.9601 81.0967 43.4211C81.4808 43.882 81.9417 44.2405 82.4795 44.4966C83.03 44.7399 83.6446 44.8615 84.3232 44.8615C85.0019 44.8615 85.61 44.7399 86.1478 44.4966C86.6856 44.2405 87.1401 43.882 87.5114 43.4211C87.8955 42.9601 88.19 42.4032 88.3949 41.7502C88.5998 41.0844 88.7022 40.3481 88.7022 39.5415C88.7022 38.7348 88.5998 38.005 88.3949 37.352C88.19 36.6862 87.8955 36.1228 87.5114 35.6619C87.1401 35.201 86.6856 34.8489 86.1478 34.6056C85.61 34.3495 85.0019 34.2215 84.3232 34.2215C83.6446 34.2215 83.03 34.3495 82.4795 34.6056C81.9417 34.8489 81.4808 35.201 81.0967 35.6619C80.7253 36.1228 80.4373 36.6862 80.2324 37.352C80.0275 38.005 79.9251 38.7348 79.9251 39.5415ZM101.819 32.8963V34.5095H97.6325V46.2059H95.7695V34.5095H91.5826V32.8963H101.819ZM103.787 46.2059V32.8963H111.911V34.4903H105.65V38.4468H111.219V40.0024H105.65V44.6118H112.391V46.2059H103.787ZM119.938 46.494C119.003 46.494 118.152 46.3404 117.384 46.0331C116.616 45.7258 115.956 45.2776 115.406 44.6887C114.855 44.0997 114.426 43.3763 114.119 42.5184C113.824 41.6477 113.677 40.6554 113.677 39.5415C113.677 38.4275 113.843 37.4416 114.176 36.5838C114.522 35.7131 114.983 34.9833 115.559 34.3943C116.135 33.8053 116.808 33.3572 117.576 33.0499C118.344 32.7426 119.164 32.589 120.034 32.589C120.585 32.589 121.078 32.6274 121.513 32.7042C121.961 32.781 122.345 32.8706 122.665 32.9731C122.998 33.0755 123.267 33.1779 123.472 33.2804C123.677 33.3828 123.818 33.4596 123.895 33.5108L123.357 35.0473C123.242 34.9705 123.075 34.8873 122.857 34.7976C122.64 34.708 122.39 34.6184 122.108 34.5288C121.84 34.4391 121.539 34.3687 121.206 34.3175C120.886 34.2535 120.559 34.2215 120.226 34.2215C119.522 34.2215 118.888 34.3431 118.325 34.5864C117.761 34.8296 117.281 35.1818 116.884 35.6427C116.487 36.1036 116.18 36.667 115.963 37.3328C115.758 37.9858 115.655 38.722 115.655 39.5415C115.655 40.3353 115.745 41.0588 115.924 41.7118C116.116 42.3648 116.398 42.9281 116.769 43.4019C117.14 43.8628 117.601 44.2213 118.152 44.4774C118.715 44.7335 119.368 44.8615 120.111 44.8615C120.969 44.8615 121.679 44.7719 122.243 44.5926C122.806 44.4134 123.229 44.2533 123.51 44.1125L123.991 45.649C123.901 45.713 123.741 45.7962 123.51 45.8986C123.28 45.9883 122.992 46.0779 122.646 46.1675C122.3 46.2571 121.897 46.334 121.436 46.398C120.975 46.462 120.476 46.494 119.938 46.494ZM134.498 32.8963H136.361V46.2059H134.498V40.06H127.988V46.2059H126.125V32.8963H127.988V38.4468H134.498V32.8963Z" fill="#04312C"/>
</svg>
